<svg xmlns="http://www.w3.org/2000/svg" viewBox="0 0 200 100"><defs><style>.\33 cc31b15-63f2-430f-b137-5a305a110180{fill:#fff;}.\39 634f232-de9d-4892-8ab8-15c212a763f0{fill:#f05133;}</style></defs><title>git logo</title><g id="17d55099-bb81-42ab-8485-f51570887341" data-name="Layer 1"><rect class="3cc31b15-63f2-430f-b137-5a305a110180" width="200" height="100"/></g><g id="28d37d24-d15f-48f1-bd95-346a211d166c" data-name="Layer 2"><path class="9634f232-de9d-4892-8ab8-15c212a763f0" d="M123.67,41.07a8.63,8.63,0,0,1,2,5.49c0,6-4.73,9.57-11.58,9.57a17.3,17.3,0,0,1-4.3-.49L108,58.52l5.33.33c9.41.6,15,.87,15,8.1,0,6.26-5.49,9.79-15,9.79-9.84,0-13.6-2.5-13.6-6.8,0-2.45,1.09-3.75,3-5.55a3.62,3.62,0,0,1-2.39-3.59,4.88,4.88,0,0,1,1.58-3.32c1-1,2.07-2.07,3.37-3.26a8.69,8.69,0,0,1-4.68-8.16c0-6.25,4.13-10.55,12.45-10.55a18.66,18.66,0,0,1,5,.54h10.61v4.62Zm-16.1,24.8a4.82,4.82,0,0,0-1.41,2.88c0,2.17,2.77,2.83,6.58,2.83,3.15,0,7.45-.22,7.45-3.15,0-1.74-2.07-1.85-4.68-2Zm6-25c-3,0-5.22,1.47-5.22,5,0,2.66,1.47,4.51,5.06,4.51,3,0,5.11-1.79,5.11-4.62C118.5,42.59,116.65,40.9,113.55,40.9Z"/><path class="9634f232-de9d-4892-8ab8-15c212a763f0" d="M131.22,63.87V59.57l2.77-.38c.76-.11.87-.27.87-1.09v-16c0-.6-.16-1-.71-1.14l-2.94-1,.6-4.4h11.26V58.1c0,.87.05,1,.87,1.09l2.77.38v4.29Zm7-32.68c-3.1,0-4.9-1.8-4.9-4.9s1.79-4.78,4.9-4.78,4.95,1.69,4.95,4.78S141.4,31.18,138.24,31.18Z"/><path class="9634f232-de9d-4892-8ab8-15c212a763f0" d="M168.23,61.76a21.75,21.75,0,0,1-8.87,2.17c-6.47,0-8.92-2.61-8.92-8.76V40.93c0-.33,0-.54-.44-.54H146.2V35.54c4.79-.55,6.69-2.94,7.29-8.87h5.17V34.4c0,.38,0,.54.44.54h7.67v5.44h-8.1v13c0,3.21.76,4.46,3.7,4.46a13,13,0,0,0,4.41-.87Z"/><path class="9634f232-de9d-4892-8ab8-15c212a763f0" d="M87.65,47.49,62.78,22.62a3.67,3.67,0,0,0-5.19,0l-5.16,5.16L59,34.33a4.36,4.36,0,0,1,5.52,5.55l6.31,6.31a4.36,4.36,0,1,1-2.61,2.46l-5.89-5.89V58.27a4.36,4.36,0,1,1-3.59-.13V42.5a4.32,4.32,0,0,1-1.43-1,4.36,4.36,0,0,1-.94-4.77l-6.46-6.46L32.84,47.37a3.67,3.67,0,0,0,0,5.19L57.71,77.43a3.67,3.67,0,0,0,5.19,0L87.65,52.67A3.67,3.67,0,0,0,87.65,47.49Z"/></g></svg>