<svg id="SaaStr" xmlns="http://www.w3.org/2000/svg" viewBox="0 0 100 100"><defs><style>.cls-1{fill:#0080ff;}</style></defs><title>Icon</title><path id="_Path_" data-name="&lt;Path&gt;" class="cls-1" d="M50,100V80.6c20.5,0,36.5-20.4,28.6-42A29,29,0,0,0,61.3,21.4c-21.6-7.8-42,8.1-42,28.6H0C0,17.3,31.6-8.2,65.9,2.5A48.4,48.4,0,0,1,97.5,34.1C108.2,68.4,82.7,100,50,100Z"/><polygon id="_Path_2" data-name="&lt;Path&gt;" class="cls-1" points="50.1 80.7 30.7 80.7 30.7 61.4 30.7 61.4 50.1 61.4 50.1 61.4 50.1 80.7"/><polygon id="_Path_3" data-name="&lt;Path&gt;" class="cls-1" points="30.7 95.5 15.9 95.5 15.9 95.5 15.9 80.7 30.7 80.7 30.7 95.5"/><path id="_Path_4" data-name="&lt;Path&gt;" class="cls-1" d="M15.9,80.7H3.5V68.3H15.9Z"/></svg>